<svg width="40" height="40" viewBox="0 0 40 40" fill="none" xmlns="http://www.w3.org/2000/svg">
<g id="ai_star">
<g id="Vector">
<path d="M28.7666 25.1L22.0332 27.5833C21.5166 27.7667 21.1166 28.1833 20.9332 28.6833L18.4332 35.4333C17.8332 37.0667 15.5166 37.0667 14.9166 35.4333L12.4166 28.6833C12.2332 28.1667 11.8166 27.7667 11.3166 27.5833L4.56655 25.1C2.93322 24.5 2.93322 22.1833 4.56655 21.5833L11.3166 19.0833C11.8332 18.9 12.2332 18.4833 12.4166 17.9833L14.9166 11.2333C15.5166 9.59999 17.8332 9.59999 18.4332 11.2333L20.9332 17.9833C21.1166 18.5 21.5332 18.9 22.0332 19.0833L28.7666 21.5833C30.3999 22.1833 30.3999 24.5 28.7666 25.1Z" fill="#F00012"/>
<path d="M36.0499 10.8833L32.6832 12.1333C32.4332 12.2333 32.2166 12.4333 32.1332 12.6833L30.8832 16.0667C30.5832 16.8833 29.4332 16.8833 29.1332 16.0667L27.8832 12.6833C27.7832 12.4333 27.5832 12.2167 27.3332 12.1333L23.9666 10.8833C23.1499 10.5833 23.1499 9.43333 23.9666 9.13333L27.3332 7.88333C27.5832 7.78333 27.7999 7.58333 27.8832 7.33333L29.1332 3.94999C29.4332 3.13333 30.5832 3.13333 30.8832 3.94999L32.1332 7.33333C32.2332 7.58333 32.4332 7.78333 32.6832 7.88333L36.0499 9.13333C36.8666 9.43333 36.8666 10.5833 36.0499 10.8833Z" fill="#F00012"/>
</g>
</g>
</svg>
